# xmcd
# 
# Track frame offsets:
#     150
#     18565
#     31792
#     53905
#     74807
#     92913
#     107848
#     125305
#     138027
#     151655
#     173633
#     189643
#     212383
#     238160
#     258584
#     277437
#     291816
#     307726
#     318705
#     335404
# 
# Disc length: 4711
# 
# Revision: 10
# Processed by: cddbd v1.5.2PL0 Copyright (c) Steve Scherf et al.
# Submitted via: fre:ac v1.0.31
# 
DISCID=27126514
DTITLE=80's - Left Of The Dial Disc 1
DYEAR=2004
DGENRE=Rock/Pop
TTITLE0=R.E.M. - Radio Free Europe
TTITLE1=The Jam - Going Underground
TTITLE2=The Cure - A Forest
TTITLE3=Dead Kennedys - Holiday In Cambodia
TTITLE4=Passions - I'm In Love With A German Film Star
TTITLE5=The Replacements - I Will Dare
TTITLE6=Mission Of Burma - That's When I Reach For My Revolver
TTITLE7=X - Johny Hit And Run Paulene
TTITLE8=Jesus and Mary Chain - Just Like Honey
TTITLE9=Depeche Mode - Black Celebration
TTITLE10=Dream Syndicate - Tell Me When It's Over
TTITLE11=Red Hot Chili Peppers - Hollywood (Africa)
TTITLE12=New Order - Temptation
TTITLE13=Japan - Ghosts
TTITLE14=Magazine - A Song From Under The Floorboards
TTITLE15=Aztec Camera - Oblivious
TTITLE16=Hüsker Dü - Don't Want To Know If You Are Lonely
TTITLE17=Black Flag - Rise Above
TTITLE18=Wall Of Voodoo - Back In Flesh
TTITLE19=The Go-Betweens - Cattle And Cane
EXTD=
EXTT0=
EXTT1=
EXTT2=
EXTT3=
EXTT4=
EXTT5=
EXTT6=
EXTT7=
EXTT8=
EXTT9=
EXTT10=
EXTT11=
EXTT12=
EXTT13=
EXTT14=
EXTT15=
EXTT16=
EXTT17=
EXTT18=
EXTT19=
PLAYORDER=
